HIERARCHY
ROOT Hips
{
	OFFSET -0.001795 -0.223333 0.028219
	CHANNELS 6 Xposition Yposition Zposition Zrotation Yrotation Xrotation 
	JOINT LeftUpLeg
	{
		OFFSET 0.069520 -0.091406 -0.006815
		CHANNELS 3 Zrotation Yrotation Xrotation
		JOINT LeftLeg
		{
			OFFSET 0.034277 -0.375199 -0.004496
			CHANNELS 3 Zrotation Yrotation Xrotation
			JOINT LeftFoot
			{
				OFFSET -0.013596 -0.397961 -0.043693
				CHANNELS 3 Zrotation Yrotation Xrotation
				JOINT LeftToe
				{
					OFFSET 0.026358 -0.055791 0.119288
					CHANNELS 3 Zrotation Yrotation Xrotation
					End Site
					{
						OFFSET 0.000000 0.000000 0.000000
					}
				}
			}
		}
	}
	JOINT RightUpLeg
	{
		OFFSET -0.067670 -0.090522 -0.004320
		CHANNELS 3 Zrotation Yrotation Xrotation
		JOINT RightLeg
		{
			OFFSET -0.038290 -0.382569 -0.008850
			CHANNELS 3 Zrotation Yrotation Xrotation
			JOINT RightFoot
			{
				OFFSET 0.015774 -0.398415 -0.042312
				CHANNELS 3 Zrotation Yrotation Xrotation
				JOINT RightToe
				{
					OFFSET -0.025372 -0.048144 0.123348
					CHANNELS 3 Zrotation Yrotation Xrotation
					End Site
					{
						OFFSET 0.000000 0.000000 0.000000
					}
				}
			}
		}
	}
	JOINT Spine
	{
		OFFSET -0.002533 0.108963 -0.026696
		CHANNELS 3 Zrotation Yrotation Xrotation
		JOINT Spine1
		{
			OFFSET 0.005487 0.135180 0.001092
			CHANNELS 3 Zrotation Yrotation Xrotation
			JOINT Spine2
			{
				OFFSET 0.001457 0.052922 0.025425
				CHANNELS 3 Zrotation Yrotation Xrotation
				JOINT Neck
				{
					OFFSET -0.002778 0.213870 -0.042857
					CHANNELS 3 Zrotation Yrotation Xrotation
					JOINT Head
					{
						OFFSET 0.005152 0.064970 0.051349
						CHANNELS 3 Zrotation Yrotation Xrotation
						End Site
						{
							OFFSET 0.000000 0.000000 0.000000
						}
					}
				}
				JOINT LeftShoulder
				{
					OFFSET 0.078845 0.121749 -0.034090
					CHANNELS 3 Zrotation Yrotation Xrotation
					JOINT LeftArm
					{
						OFFSET 0.090977 0.030469 -0.008868
						CHANNELS 3 Zrotation Yrotation Xrotation
						JOINT LeftForeArm
						{
							OFFSET 0.259612 -0.012772 -0.027456
							CHANNELS 3 Zrotation Yrotation Xrotation
							JOINT LeftHand
							{
								OFFSET 0.249234 0.008986 -0.001171
								CHANNELS 3 Zrotation Yrotation Xrotation
								End Site
								{
									OFFSET 0.000000 0.000000 0.000000
								}
							}
						}
					}
				}
				JOINT RightShoulder
				{
					OFFSET -0.081759 0.118833 -0.038615
					CHANNELS 3 Zrotation Yrotation Xrotation
					JOINT RightArm
					{
						OFFSET -0.096012 0.032551 -0.009143
						CHANNELS 3 Zrotation Yrotation Xrotation
						JOINT RightForeArm
						{
							OFFSET -0.253742 -0.013329 -0.021401
							CHANNELS 3 Zrotation Yrotation Xrotation
							JOINT RightHand
							{
								OFFSET -0.255298 0.007772 -0.005559
								CHANNELS 3 Zrotation Yrotation Xrotation
								End Site
								{
									OFFSET 0.000000 0.000000 0.000000
								}
							}
						}
					}
				}
			}
		}
	}
}
MOTION
Frames: 7
Frame Time: 0.05000000
0.000000 0.815577 0.000000 0.207812 4.705262 22.469254 -0.149936 -1.079768 -13.506279 -5.960914 0.440725 6.934204 9.127855 6.693268 -44.012156 0.000000 0.000000 0.000000 -12.900354 -0.750253 -63.286583 15.926607 -9.159281 49.558421 -6.219496 -18.684783 -21.292846 0.000000 0.000000 0.000000 -1.505167 0.905009 -22.711041 0.308201 0.445319 -18.295525 -5.061229 -6.186989 40.647743 3.742043 -0.349823 -33.202295 0.000000 0.000000 0.000000 17.583906 3.376323 -0.856472 -89.656499 -7.895968 -0.718792 -16.725957 -32.598226 7.169789 0.000000 0.000000 0.000000 -19.228901 -6.482919 0.062097 95.203584 1.376055 -10.485205 20.443344 32.876799 7.833963 0.000000 0.000000 0.000000 
0.069078 0.805308 0.680889 0.659939 7.566201 27.173927 0.541432 -1.107669 -13.956565 -5.919225 0.320315 5.137729 9.580259 4.646469 -45.842940 0.000000 0.000000 0.000000 -13.634807 -2.623247 -72.653035 14.859877 -8.329884 46.234048 -5.452282 -16.179609 -14.941959 0.000000 0.000000 0.000000 -1.946084 1.015271 -27.401377 0.815762 0.326503 -18.060293 -6.787893 -9.010149 41.325663 3.522602 -0.529487 -32.895016 0.000000 0.000000 0.000000 15.941772 3.138446 -1.101840 -89.514686 -8.313611 0.820610 -16.207153 -35.276353 7.826741 0.000000 0.000000 0.000000 -18.236697 -6.817640 0.193966 92.942051 -1.197411 -13.444121 20.875576 32.644556 7.922321 0.000000 0.000000 0.000000 
0.148270 0.792455 1.495996 0.397094 11.681939 26.792179 3.716832 -1.229227 -10.683126 -8.669668 0.520010 5.884509 10.238273 3.083070 -48.950317 0.000000 0.000000 0.000000 -14.134748 -4.296422 -74.682287 15.619245 -8.980832 44.808292 -5.652776 -17.188340 -14.520883 0.000000 0.000000 0.000000 -1.301970 1.007542 -25.767598 1.731310 0.099179 -17.711838 -7.277641 -11.329700 41.313739 3.165935 -0.433131 -33.232125 0.000000 0.000000 0.000000 13.876794 3.135224 -1.163688 -89.545983 -9.978864 2.319517 -11.949436 -38.657487 7.269340 0.000000 0.000000 0.000000 -16.948428 -6.715200 0.079265 90.981954 -3.493677 -15.575115 19.140017 32.084234 7.164146 0.000000 0.000000 0.000000 
0.242148 0.778260 2.487698 0.463741 14.379679 29.174391 3.950172 -1.250887 -9.245172 -6.578256 0.315074 6.507428 10.982639 3.330394 -50.666743 0.000000 0.000000 0.000000 -12.886285 -5.113887 -80.078609 14.440935 -9.199388 48.276355 -5.667612 -17.004314 -13.337453 0.000000 0.000000 0.000000 -1.387189 1.047425 -27.529205 2.218264 -0.013359 -17.709038 -7.786432 -14.227885 41.549371 3.939080 -0.951604 -33.922563 0.000000 0.000000 0.000000 13.550518 3.397382 -1.464533 -89.185860 -7.769918 1.364385 -15.449825 -44.326582 10.333743 0.000000 0.000000 0.000000 -15.489689 -5.567088 0.400058 89.886145 -5.316968 -17.760448 18.808059 31.999908 7.004013 0.000000 0.000000 0.000000 
0.355465 0.770850 3.693834 -0.006367 16.168632 32.767972 5.149337 -1.514843 -9.868003 -7.038017 0.389402 8.649243 10.900096 5.484002 -49.183218 0.000000 0.000000 0.000000 -10.529055 -4.448453 -84.051556 12.861185 -9.022660 52.459574 -6.078078 -18.557142 -12.504530 0.000000 0.000000 0.000000 0.395704 1.172372 -31.753655 2.228378 -0.032525 -17.302479 -8.008428 -14.385376 42.342354 4.027578 -1.052562 -33.490159 0.000000 0.000000 0.000000 13.834132 3.285075 -1.494388 -88.977946 -7.550251 1.380346 -19.160674 -49.712171 13.913345 0.000000 0.000000 0.000000 -16.576084 -6.182608 0.498143 89.122180 -6.718647 -18.492126 19.403351 31.036965 7.018214 0.000000 0.000000 0.000000 
0.480363 0.772860 5.080554 0.047331 17.806350 35.460757 6.561677 -1.793644 -14.242938 -7.693200 0.766497 20.365017 10.276397 7.216252 -43.358085 0.000000 0.000000 0.000000 -9.327787 -3.915046 -83.868079 10.867617 -8.500104 55.478177 -5.336810 -15.246153 -13.912873 0.000000 0.000000 0.000000 1.009199 1.220569 -35.053076 2.334285 -0.058486 -17.383835 -7.949792 -14.289283 42.568548 3.901548 -0.957214 -33.019177 0.000000 0.000000 0.000000 15.132319 4.711079 -1.775669 -90.457890 -3.964851 -1.697900 -25.039105 -51.250506 17.559753 0.000000 0.000000 0.000000 -18.476694 -6.774771 0.608805 90.277776 -8.161150 -19.312770 19.499092 31.252785 7.239691 0.000000 0.000000 0.000000 
0.609865 0.783080 6.499639 -0.118337 18.596500 36.146556 7.531357 -1.976667 -24.468565 -9.627945 1.681195 43.784699 7.597766 7.141643 -27.487038 0.000000 0.000000 0.000000 -8.169910 -2.578411 -80.017980 11.236553 -9.220851 56.098929 -5.270963 -14.669785 -17.571524 0.000000 0.000000 0.000000 1.908389 1.283637 -35.503128 2.084977 0.006997 -17.255539 -6.755637 -12.002630 41.804801 4.186372 -0.753071 -32.558397 0.000000 0.000000 0.000000 15.781360 5.638207 -1.466822 -89.893975 -2.096537 -5.170667 -28.224273 -51.564384 19.188169 0.000000 0.000000 0.000000 -18.743281 -5.802553 0.328636 91.056004 -6.684674 -16.160607 15.954210 30.617781 6.137620 0.000000 0.000000 0.000000 
